"The object of this massive tribute died as he had always lived, without
wealth, without property, without official title or office. Mahatma Gandhi was
not the commander of armies, nor the ruler of vast lands. He could not boast
any scientific achievement or artistic gift. Yet men, governments, dignitaries
from all over the world, have joined hands today to pay homage to the little
brown man in the loin cloth, who led his country to freedom." (quote from the
funeral scene)


IMDb Top 250 #183 | Won 8 Oscars. Another 26 wins & 16 nominations


R E L E A S E    I N F O

°°°°±±±±±±±±±±±±±±±±±±±±±±±±±±±±±±±±±±±±±±±±±±±±±±±±±±±±±±±±±±±±±±±±±±±±±±±±±±±±
°°°±±±±±±±±±±±±±±±±±±±±±±±±±Classic High Definition±±±±±±±±±±±±±±±±±±±±±±±±±±±±
°°±±±±±±±±±±±±±±±±±±±±±±±±±±±±±±±±±±±±±±±±±±±±±±±±±±±±±±±±±±±±±±±±±±±±±±±±±±±±
°±±±±±±±±±±±±±±±±±±±±±±±±±±±±±±Proudly Presents±±±±±±±±±±±±±±±±±±±±±±±±±±±±±±
±±±±±±±±±±±±±±±±±±±±±±±±±±±±±±±±±±±±±±±±±±±±±±±±±±±±±±±±±±±±±±±±±±±±±±±±±±±±

                 Gandhi 1982 1080p BluRay DTS.x264-CHD

°°°°°°°°°°°°°°°°°°°°°°RELEASE DATE....: 02/21/2009
°°°°°°°°°°°°°°°°°°°°°°THEATRE DATE....: 1982
°°°°°°°°°°°°°°°°°°°°°°
°°°°°°°°°°°°°°°°°°°°°°iMDB URL........: http://www.imdb.com/title/tt0083987/    
°°°°°°°°°°°°°°°°°°°°°°iMDB RATiNG.....: 8.1/10   58,187 votes    
°°°°°°°°°°°°°°°°°°°°°°GENRE...........: Biography / Drama / History
°°°°°°°°°°°°°°°°°°°°°°
°°°°°°°°°°°°°°°°°°°°°°SOURCE TYPE.....: Blu-Ray H264 1080p
°°°°°°°°°°°°°°°°°°°°°°ViDEO BiTRATE...: x264 @ 8108 Kbps
°°°°°°°°°°°°°°°°°°°°°°FRAME RATE......: 23.976 fps 
°°°°°°°°°°°°°°°°°°°°°°AUDiO BiTRATE...: DTS 1536k 5.1ch (From TrueHD) 
°°°°°°°°°°°°°°°°°°°°°°RUNTiME.........: 191 mins
°°°°°°°°°°°°°°°°°°°°°°ASPECT RATiO....: 2.35: 1
°°°°°°°°°°°°°°°°°°°°°°RESOLUTiON......: 1920 X 816
°°°°°°°°°°°°°°°°°°°°°°LANGUAGE........: eng
°°°°°°°°°°°°°°°°°°°°°°
°°°°°°°°°°°°°°°°°°°°°°RECODE RiPPER...: chp@CHD

Subtitles (not embedded): English, Arabic, Chinese, Danish, Dutch, English for
hearing impaired (SDH), Finnish, French, German, Greek, Croatian, Italian,
Norwegian, Persian (Farsi), Portuguese, Romanian, Russian, Spanish, Serbian,
Swedish, Turkish, Vietnamese

Extra: Commentary track subtitled (mkv contained) in French, Spanish,
Portuguese, Dutch / Gandhi Main theme mp3


Screenshots & Sample included


For the complete Gandhi Soundtrack (FLAC):
 
http://thepiratebay.org/torrent/4328330/Gandhi_%281982%29_-_Motion_Picture_Soundtrack_-_FLAC


For other esteemed movies please visit:
 
http://thepiratebay.org/user/Wind8Water/


Media Info

Format                           : Matroska
 File size                        : 13.1 GiB
 Duration                         : 3h 11mn
 Overall bit rate                 : 9 772 Kbps
 Encoded date                     : UTC 2011-05-26 14:31:57 (remuxed)
 Writing application              : mkvmerge v4.8.0 ('I Got The...')
                                    built on May 24 2011 03:12:58
 Writing library                  : libebml v1.2.0 + libmatroska v1.1.0

Video
 Format                           : AVC
 Format profile                   : High@L4.1
 Format settings, CABAC           : Yes
 Format settings, ReFrames        : 4 frames
 Bit rate                         : 8 071 Kbps
 Width                            : 1 920 pixels
 Height                           : 816 pixels
 Display aspect ratio             : 2.35:1
 Frame rate                       : 23.976 fps
 Color space                      : YUV
 Chroma subsampling               : 4:2:0
 Bit depth                        : 8 bits
 Scan type                        : Progressive
 Bits/(Pixel*Frame)               : 0.215
 Stream size                      : 10.5 GiB (81%)
 Title                            : Gandhi.1982
 Writing library                  : x264 core 65 r1057M 5f8a149
 Language                         : English

Audio #1
 Format                           : DTS
 Bit rate mode                    : Constant
 Bit rate                         : 1 510 Kbps
 Channel(s)                       : 6 channels
 Channel positions                : Front: L C R, Side: L R, LFE
 Sampling rate                    : 48.0 KHz
 Bit depth                        : 24 bits
 Compression mode                 : Lossy
 Stream size                      : 2.02 GiB (15%)
 Title                            : DTS 1536k 5.1ch (From TrueHD)
 Language                         : English

Audio #2
 Format                           : AC-3
 Format profile                   : Dolby Digital
 Mode extension                   : CM (complete main)
 Bit rate mode                    : Constant
 Bit rate                         : 192 Kbps
 Channel(s)                       : 2 channels
 Channel positions                : Front: L R
 Sampling rate                    : 48.0 KHz
 Bit depth                        : 16 bits
 Compression mode                 : Lossy
 Stream size                      : 263 MiB (2%)
 Title                            : Commentary
 Language                         : English

Text #1
 Title                            : Commentary
 Language                         : French

Text #2
 Title                            : Commentary
 Language                         : Spanish

Text #3
 Title                            : Commentary
 Language                         : Portuguese

Text #4
 Title                            : Commentary
 Language                         : Dutch



                                Enjoy & Please Seed  !		